<svg width="24" height="24" fill="none" xmlns="http://www.w3.org/2000/svg"><path fill-rule="evenodd" clip-rule="evenodd" d="M12 2a10 10 0 100 20 10 10 0 000-20zM7.07 18.28c.43-.9 3.05-1.78 4.93-1.78s4.51.88 4.93 1.78a7.9 7.9 0 01-9.86 0zm11.29-1.45c-1.43-1.74-4.9-2.33-6.36-2.33s-4.93.59-6.36 2.33A8.01 8.01 0 1120 12c0 1.82-.62 3.49-1.64 4.83zM12 6a3.5 3.5 0 00-3.5 3.5A3.5 3.5 0 0012 13a3.5 3.5 0 003.5-3.5A3.5 3.5 0 0012 6zm0 5a1.5 1.5 0 110-3 1.5 1.5 0 010 3z" fill="#fff"/><mask id="a" maskUnits="userSpaceOnUse" x="2" y="2" width="20" height="20"><path fill-rule="evenodd" clip-rule="evenodd" d="M12 2a10 10 0 100 20 10 10 0 000-20zM7.07 18.28c.43-.9 3.05-1.78 4.93-1.78s4.51.88 4.93 1.78a7.9 7.9 0 01-9.86 0zm11.29-1.45c-1.43-1.74-4.9-2.33-6.36-2.33s-4.93.59-6.36 2.33A8.01 8.01 0 1120 12c0 1.82-.62 3.49-1.64 4.83zM12 6a3.5 3.5 0 00-3.5 3.5A3.5 3.5 0 0012 13a3.5 3.5 0 003.5-3.5A3.5 3.5 0 0012 6zm0 5a1.5 1.5 0 110-3 1.5 1.5 0 010 3z" fill="#fff"/></mask><g mask="url(#a)"/></svg>