<svg width="108" height="24" fill="none" xmlns="http://www.w3.org/2000/svg"><g clip-path="url(#clip0)" fill="#fff"><path d="M.96 23h8.9v-.45c-3.2-.41-4.16-1.76-4.16-4.99V2.87h.19l8.32 20.16h1.15l7.46-20.16h.16v17.86c0 1.28-.8 1.73-3.08 1.82V23h11.04v-.45c-2.68-.1-3.32-.6-3.32-1.82V2.97c0-1.22.64-1.76 3.32-1.86V.7h-8.16l-6.04 16.44h-.16L9.98.7H.96v.41c2.75.07 3.94 1.54 3.94 3.46v12.99c0 3.23-.93 4.6-3.94 5V23z"/><path d="M52.13 23.35h1.53V6.1c0-3.16.87-4.54 3.88-4.99V.7h-9.1v.41c3.24.39 4.42 1.83 4.42 5v10.62h-.03L40.51.7h-7.55v.41c2.75.13 3.94 1.76 3.94 3.71v12.74c0 3.23-.93 4.6-3.94 5V23h9.02v-.45c-3.26-.35-4.28-1.76-4.28-4.99V4.73h.03l14.4 18.62z"/><path d="M63.6 23h12.1v-.45c-2.85-.06-3.72-.6-3.72-1.82V1.27h.77c2.47 0 4.39 2.47 6.63 6.82l.48-.07L79.7.7H59.57l-.2 7.32.49.07c2.27-4.45 4.22-6.82 6.65-6.82h.8v19.46c0 1.21-.9 1.76-3.71 1.82V23z"/><path d="M102.13 23.35h1.53V6.1c0-3.16.87-4.54 3.88-4.99V.7h-9.1v.41c3.24.39 4.42 1.83 4.42 5v10.62h-.03L90.51.7h-7.55v.41c2.75.13 3.94 1.76 3.94 3.71v12.74c0 3.23-.93 4.6-3.94 5V23h9.02v-.45c-3.26-.35-4.28-1.76-4.28-4.99V4.73h.03l14.4 18.62z"/></g><defs><clipPath id="clip0"><path fill="#fff" d="M0 0h108v24H0z"/></clipPath></defs></svg>